<svg id="Capa_1" enable-background="new 0 0 510 510" height="512" viewBox="0 0 510 510" width="512" xmlns="http://www.w3.org/2000/svg" xmlns:xlink="http://www.w3.org/1999/xlink"><linearGradient id="lg1"><stop offset="0" stop-color="#e6eeff"/><stop offset="1" stop-color="#bac8fa"/></linearGradient><linearGradient id="SVGID_1_" gradientUnits="userSpaceOnUse" x1="255" x2="255" xlink:href="#lg1" y1="9.5" y2="105.334"/><linearGradient id="SVGID_2_" gradientUnits="userSpaceOnUse" x1="362.861" x2="339.861" y1="85.581" y2="64.581"><stop offset="0" stop-color="#a7b7f1" stop-opacity="0"/><stop offset="1" stop-color="#a7b7f1"/></linearGradient><linearGradient id="lg2"><stop offset="0" stop-color="#fee45a"/><stop offset="1" stop-color="#fea613"/></linearGradient><linearGradient id="SVGID_3_" gradientUnits="userSpaceOnUse" x1="153.333" x2="153.333" xlink:href="#lg2" y1="95.333" y2="116.043"/><linearGradient id="SVGID_4_" gradientUnits="userSpaceOnUse" x1="356.667" x2="356.667" xlink:href="#lg2" y1="95.333" y2="116.043"/><linearGradient id="lg3"><stop offset="0" stop-color="#5a5a5a"/><stop offset="1" stop-color="#444"/></linearGradient><linearGradient id="SVGID_5_" gradientUnits="userSpaceOnUse" x1="102.667" x2="102.667" xlink:href="#lg3" y1="490.667" y2="506.015"/><linearGradient id="SVGID_6_" gradientUnits="userSpaceOnUse" x1="407.333" x2="407.333" xlink:href="#lg3" y1="490.667" y2="506.015"/><linearGradient id="lg4"><stop offset="0" stop-color="#c86d36"/><stop offset="1" stop-color="#883f2e"/></linearGradient><linearGradient id="SVGID_7_" gradientUnits="userSpaceOnUse" x1="181.855" x2="399.855" xlink:href="#lg4" y1="217.382" y2="499.382"/><linearGradient id="lg5"><stop offset="0" stop-color="#883f2e" stop-opacity="0"/><stop offset="1" stop-color="#6d3326"/></linearGradient><linearGradient id="SVGID_8_" gradientUnits="userSpaceOnUse" x1="260.171" x2="260.171" xlink:href="#lg5" y1="442.5" y2="336.867"/><linearGradient id="SVGID_9_" gradientUnits="userSpaceOnUse" x1="153.565" x2="405.565" xlink:href="#lg4" y1="159.564" y2="311.563"/><linearGradient id="SVGID_10_" gradientUnits="userSpaceOnUse" x1="255" x2="255" xlink:href="#lg5" y1="244" y2="364.067"/><linearGradient id="SVGID_11_" gradientUnits="userSpaceOnUse" x1="255" x2="255" xlink:href="#lg5" y1="435" y2="496.4"/><linearGradient id="SVGID_12_" gradientUnits="userSpaceOnUse" x1="520.569" x2="405.569" xlink:href="#lg5" y1="414.311" y2="356.311"/><linearGradient id="SVGID_13_" gradientUnits="userSpaceOnUse" x1="224.379" x2="58.379" xlink:href="#lg5" y1="416.747" y2="302.747"/><linearGradient id="SVGID_14_" gradientUnits="userSpaceOnUse" x1="116" x2="116" xlink:href="#lg2" y1="348.667" y2="364.004"/><linearGradient id="SVGID_15_" gradientUnits="userSpaceOnUse" x1="107.989" x2="126.322" xlink:href="#lg2" y1="296.283" y2="334.283"/><linearGradient id="SVGID_16_" gradientUnits="userSpaceOnUse" x1="394" x2="394" xlink:href="#lg2" y1="348.667" y2="364.004"/><linearGradient id="SVGID_17_" gradientUnits="userSpaceOnUse" x1="385.989" x2="404.322" xlink:href="#lg2" y1="296.283" y2="334.283"/><linearGradient id="SVGID_18_" gradientUnits="userSpaceOnUse" x1="342.068" x2="261.067" xlink:href="#lg5" y1="327.905" y2="196.905"/><linearGradient id="SVGID_19_" gradientUnits="userSpaceOnUse" x1="255" x2="255" xlink:href="#lg1" y1="215.274" y2="236.074"/><linearGradient id="SVGID_20_" gradientUnits="userSpaceOnUse" x1="255" x2="255" xlink:href="#lg3" y1="9.307" y2="27.958"/><g><path d="m377.5 105.334h-25c0-39.058-43.738-70.833-97.5-70.833s-97.5 31.776-97.5 70.833h-25c0-26.265 13.201-50.73 37.17-68.889 22.935-17.376 53.239-26.945 85.33-26.945s62.395 9.569 85.33 26.944c23.97 18.159 37.17 42.624 37.17 68.89z" fill="url(#SVGID_1_)"/><path d="m340.33 36.444c-11.625-8.806-25.147-15.597-39.83-20.164v26.422c30.899 11.896 52 35.505 52 62.631h25c0-26.265-13.2-50.73-37.17-68.889z" fill="url(#SVGID_2_)"/><g><path d="m176.913 90.209-3.458-1.37c-12.926-5.119-27.316-5.119-40.242 0l-3.458 1.37c-6.088 2.411-10.087 8.296-10.087 14.844v34.518c0 8.818 7.148 15.966 15.966 15.966h35.401c8.818 0 15.966-7.148 15.966-15.966v-34.518c-.001-6.548-4-12.433-10.088-14.844z" fill="url(#SVGID_3_)"/><path d="m380.246 90.209-3.458-1.37c-12.926-5.119-27.316-5.119-40.242 0l-3.458 1.37c-6.089 2.411-10.088 8.296-10.088 14.845v34.518c0 8.818 7.148 15.966 15.966 15.966h35.401c8.818 0 15.966-7.148 15.966-15.966v-34.518c0-6.549-3.998-12.434-10.087-14.845z" fill="url(#SVGID_4_)"/></g><g><g><path d="m113.616 510h-21.899c-6.84 0-12.384-5.545-12.384-12.384v-19.616h46.667v19.616c0 6.839-5.545 12.384-12.384 12.384z" fill="url(#SVGID_5_)"/><path d="m418.283 510h-21.898c-6.839 0-12.384-5.545-12.384-12.384v-19.616h46.667v19.616c-.001 6.839-5.546 12.384-12.385 12.384z" fill="url(#SVGID_6_)"/></g><path d="m446.384 495.005h-382.768c-30.03 0-54.373-24.344-54.373-54.373v-257.263c0-30.03 24.344-54.373 54.373-54.373h382.769c30.03 0 54.373 24.344 54.373 54.373v257.262c0 30.03-24.344 54.374-54.374 54.374z" fill="url(#SVGID_7_)"/><path d="m500.758 297.576c-13.611 13.611-32.072 21.258-51.321 21.258h-429.854l176.171 176.171h250.63c30.03 0 54.373-24.344 54.373-54.373v-143.056z" fill="url(#SVGID_8_)"/><path d="m464.759 328.805-191.196 16.585c-12.352 1.071-24.774 1.071-37.127 0l-191.195-16.585c-25.594-2.22-45.241-23.645-45.241-49.336v-114.704c0-30.03 24.344-54.373 54.373-54.373h401.253c30.03 0 54.373 24.344 54.373 54.373v114.705c.001 25.69-19.646 47.115-45.24 49.335z" fill="url(#SVGID_9_)"/><path d="m0 198.906v80.563c0 25.691 19.647 47.116 45.241 49.336l191.195 16.585c12.353 1.071 24.775 1.071 37.127 0l191.195-16.585c25.595-2.22 45.242-23.645 45.242-49.335v-80.563h-510z" fill="url(#SVGID_10_)"/><path d="m9.242 369v71.631c0 30.03 24.344 54.374 54.373 54.374h382.769c30.03 0 54.373-24.344 54.373-54.374v-71.631z" fill="url(#SVGID_11_)"/><path d="m500.76 362.95v77.68c0 14.46-5.65 27.61-14.86 37.35l-112.17-112.17c-4.27-1.99-7.23-6.31-7.23-11.34v-11.57c-3.23-2.96-5.17-7.19-5.17-11.75v-34.52c0-8.82 7.15-15.96 15.97-15.96h35.4c5.96 0 11.15 3.27 13.89 8.11z" fill="url(#SVGID_12_)"/><path d="m354.81 495h-129.9l-129.18-129.19c-4.27-1.99-7.23-6.31-7.23-11.34v-11.57c-3.23-2.96-5.17-7.19-5.17-11.75v-34.52c0-8.82 7.15-15.96 15.97-15.96h35.4c5.96 0 11.15 3.27 13.89 8.11z" fill="url(#SVGID_13_)"/><g><g><path d="m131.975 366h-31.949c-6.918 0-12.525-5.608-12.525-12.525v-20.475h57v20.475c-.001 6.917-5.609 12.525-12.526 12.525z" fill="url(#SVGID_14_)"/><path d="m139.579 344.995-3.458 1.37c-12.926 5.119-27.316 5.119-40.242 0l-3.459-1.37c-6.088-2.411-10.087-8.296-10.087-14.844v-34.518c0-8.818 7.148-15.966 15.966-15.966h35.401c8.818 0 15.966 7.148 15.966 15.966v34.518c.001 6.548-3.998 12.433-10.087 14.844z" fill="url(#SVGID_15_)"/></g><g><path d="m409.975 366h-31.949c-6.918 0-12.525-5.608-12.525-12.525v-20.475h57v20.475c-.001 6.917-5.609 12.525-12.526 12.525z" fill="url(#SVGID_16_)"/><path d="m417.579 344.995-3.458 1.37c-12.926 5.119-27.316 5.119-40.242 0l-3.458-1.37c-6.088-2.411-10.087-8.296-10.087-14.844v-34.518c0-8.818 7.148-15.966 15.966-15.966h35.401c8.818 0 15.966 7.148 15.966 15.966v34.518c0 6.548-3.999 12.433-10.088 14.844z" fill="url(#SVGID_17_)"/></g></g><path d="m423.859 332.353c-64.287-64.862-117.575-118.677-117.914-119.187-1.456-2.191-3.947-3.635-6.775-3.635h-86.34c-4.49 0-8.129 3.639-8.129 8.129v13.603c0 2.245.91 4.277 2.381 5.748.468.468 45.123 44.782 105.776 104.97z" fill="url(#SVGID_18_)"/><path d="m298.17 237.861h-86.34c-4.49 0-8.129-3.639-8.129-8.129v-13.603c0-4.49 3.64-8.129 8.129-8.129h86.341c4.49 0 8.129 3.64 8.129 8.129v13.603c0 4.49-3.64 8.129-8.13 8.129z" fill="url(#SVGID_19_)"/></g><g><path d="m316.37 62.371c-40.65-17.548-82.129-17.53-122.739 0-6.54 2.823-14.155.332-17.684-5.856-3.56-6.241-7.119-12.481-10.679-18.722-4.104-7.195-1.039-16.314 6.532-19.676 54.39-24.154 112.001-24.157 166.401 0 7.571 3.362 10.636 12.48 6.532 19.676-3.56 6.241-7.119 12.481-10.679 18.722-3.53 6.187-11.144 8.679-17.684 5.856z" fill="url(#SVGID_20_)"/></g></g></svg>