<svg id="Layer_1" enable-background="new 0 0 64 64" viewBox="0 0 64 64" xmlns="http://www.w3.org/2000/svg"><g id="GitHub"><path d="m64 32c0 14.2-9.2 26.2-22 30.4h-20c-12.8-4.2-22-16.2-22-30.4 0-17.7 14.3-32 32-32s32 14.3 32 32z" fill="#171516"/><path d="m60 32c0 15.5-12.5 20-28 20s-28-4.5-28-20 12.5-28 28-28 28 12.5 28 28z" fill="#314a52"/><path d="m44 45c3-1 8-4 8-13 0-3.5-.9-6.7-2.9-9.3 2.2-5.3-.2-8.7-1.1-8.7-.8 0-4.2.6-7.3 3.1-2.5-.7-5.4-1.1-8.7-1.1s-6.2.4-8.7 1.1c-3.1-2.5-6.5-3.1-7.3-3.1-.9 0-3.3 3.4-1.1 8.7-2 2.6-2.9 5.8-2.9 9.3 0 9 5 12 8 13 2.4.8 5 1.3 6 1.5-.6.6-1.6 2.2-1.9 4.4-.8.6-2 1.1-3.6 1.1-3 0-4.5-2-6-4s-3.5-3-4.5-3-2 .5-1 1.5 2.3.2 5 5c2 3.6 4.5 3.5 6.5 3.5 1.8 0 3.5-1 3.5-1h15l1-2c0-2.8-1.3-4.8-2-5.5 1-.2 3.6-.7 6-1.5z" fill="#fff"/><path clip-rule="evenodd" d="m9 46.5c-.6-.6-.5-1-.1-1.2 1.8 1.8 4.1 3.2 6.8 4.2 1.2 1.4 2.6 2.5 4.8 2.5 1 0 1.9-.3 2.7-.6 2.8.4 5.8.6 8.8.6 2.8 0 5.5-.1 8-.5v.5 8l2.3 2.3c-6.7 2.3-13.9 2.3-20.6 0l2.3-2.3v-4.8c-.8.3-2.2.8-3.5.8-2 0-5-.4-7-4-2-3.7-3-4.4-3.8-4.9-.2-.2-.5-.4-.7-.6z" fill="#acbdc5" fill-rule="evenodd"/></g></svg>