<svg id="Layer_1" enable-background="new 0 0 512 512" height="512" viewBox="0 0 512 512" width="512" xmlns="http://www.w3.org/2000/svg"><g id="Layer_2_00000133500307033265946270000015958007752126911920_"><g id="Layer_1-2"><g id="SQL"><g id="File"><path d="m302.2 0h-191.1c-18.4 0-33.4 15-33.4 33.5v445.1c0 18.5 15 33.4 33.5 33.5h335.5c18.5 0 33.4-15 33.5-33.5l-1-330.6z" fill="#4eb3f2"/><path d="m302.2 0-.5 144.5s.5 3.5 3.5 3.5h174z" fill="#07c"/></g><path d="m45.5 246.7h337.6c7.5 0 13.6 6.1 13.6 13.6v150.8c0 7.5-6.1 13.6-13.6 13.6h-337.6c-7.5 0-13.6-6.1-13.6-13.6v-150.8c0-7.5 6.1-13.6 13.6-13.6z" fill="#07c"/><g fill="#fff"><path d="m101.3 349.3 22-1.4c.5 3.6 1.4 6.3 2.9 8.2 2.4 3 5.8 4.5 10.2 4.5 3.3 0 5.8-.8 7.6-2.3 1.7-1.3 2.6-3.3 2.7-5.4 0-2-1-3.9-2.5-5.2-1.7-1.5-5.7-3-11.9-4.4-10.2-2.3-17.4-5.3-21.7-9.1-4.3-3.6-6.7-8.9-6.5-14.5 0-3.9 1.2-7.7 3.3-10.9 2.5-3.6 6-6.4 10.1-8.1 4.5-2 10.6-2.9 18.4-2.9 9.6 0 16.9 1.8 21.9 5.3 5 3.6 8 9.2 9 17l-21.8 1.3c-.6-3.4-1.8-5.8-3.7-7.4-1.9-1.5-4.4-2.3-7.7-2.3-2.7 0-4.7.6-6.1 1.7-1.3 1-2 2.5-2 4.2 0 1.3.7 2.5 1.7 3.2 1.1 1 3.7 1.9 7.8 2.8 10.1 2.2 17.4 4.4 21.7 6.6 3.9 1.8 7.2 4.7 9.6 8.3 2 3.3 3 7.2 3 11.1 0 4.7-1.4 9.4-4 13.3-2.7 4.1-6.6 7.3-11.1 9.2-4.8 2.1-10.8 3.1-18 3.1-12.7 0-21.6-2.5-26.5-7.4-4.9-4.7-7.7-11-8.4-18.5z"/><path d="m247.4 363.1c2.9 2 4.8 3.3 5.7 3.8 1.3.8 3.1 1.6 5.4 2.6l-6.4 13c-3.3-1.6-6.6-3.5-9.6-5.6-3.2-2.2-5.4-3.8-6.6-4.9-5.1 2.2-11.5 3.3-19.2 3.3-11.4 0-20.4-3-26.9-8.9-7.8-7-11.6-16.9-11.6-29.6 0-12.3 3.4-21.9 10.2-28.7s16.3-10.2 28.5-10.2c12.4 0 22 3.3 28.8 10s10.1 16.2 10.1 28.7c-.2 11-3 19.9-8.4 26.5zm-17.7-11.8c1.8-3.3 2.8-8.3 2.8-14.8 0-7.6-1.4-13-4.2-16.2s-6.7-4.9-11.6-4.9c-4.3-.1-8.4 1.7-11.2 5-2.9 3.3-4.3 8.5-4.3 15.5 0 8.2 1.4 13.9 4.2 17.2s6.6 5 11.5 5c1.5 0 3-.1 4.4-.5-1.9-1.9-5-3.6-9.2-5.3l3.6-8.3c1.6.3 3.3.7 4.8 1.4 2.3 1.3 4.5 2.7 6.7 4.3.7.4 1.5 1 2.5 1.6z"/><path d="m268 299.1h23.1v56.5h36.1v18.4h-59.2z"/></g></g></g></g></svg>